font.ufo
<glyph name="asterisk" format="1">
  <advance width="309"/>
  <unicode hex="002A"/>
  <outline>
    <contour>
      <point x="280" y="528" type="line"/>
      <point x="181" y="584" type="line"/>
      <point x="280" y="640" type="line"/>
      <point x="266" y="666" type="line"/>
      <point x="168" y="609" type="line"/>
      <point x="168" y="722" type="line"/>
      <point x="141" y="722" type="line"/>
      <point x="141" y="609" type="line"/>
      <point x="43" y="666" type="line"/>
      <point x="29" y="640" type="line"/>
      <point x="127" y="584" type="line"/>
      <point x="29" y="528" type="line"/>
      <point x="43" y="501" type="line"/>
      <point x="141" y="558" type="line"/>
      <point x="141" y="445" type="line"/>
      <point x="168" y="445" type="line"/>
      <point x="168" y="558" type="line"/>
      <point x="266" y="501" type="line"/>
    </contour>
  </outline>
</glyph>
<glyph name="period" format="1">
  <advance width="180"/>
  <unicode hex="002E"/>
  <outline>
    <contour>
      <point x="56" y="28" type="curve" smooth="yes"/>
      <point x="56" y="9"/>
      <point x="71" y="-7"/>
      <point x="90" y="-7" type="curve" smooth="yes"/>
      <point x="109" y="-7"/>
      <point x="124" y="9"/>
      <point x="124" y="28" type="curve" smooth="yes"/>
      <point x="124" y="48"/>
      <point x="109" y="64"/>
      <point x="90" y="64" type="curve" smooth="yes"/>
      <point x="71" y="64"/>
      <point x="56" y="48"/>
    </contour>
  </outline>
</glyph>
<glyph name="slash" format="1">
  <advance width="302"/>
  <unicode hex="002F"/>
  <outline>
    <contour>
      <point x="306" y="824" type="line"/>
      <point x="-2" y="-127" type="line"/>
      <point x="36" y="-127" type="line"/>
      <point x="345" y="824" type="line"/>
    </contour>
  </outline>
</glyph>
<glyph name="one" format="1">
  <advance width="354"/>
  <unicode hex="0031"/>
  <note>
    one
  </note>
  <outline>
    <contour>
      <point x="209" y="699" type="line"/>
      <point x="20" y="699" type="line"/>
      <point x="20" y="658" type="line"/>
      <point x="167" y="658" type="line"/>
      <point x="167" y="0" type="line"/>
      <point x="209" y="0" type="line"/>
    </contour>
  </outline>
</glyph>
<glyph name="two" format="1">
  <advance width="574"/>
  <unicode hex="0032"/>
  <note>
    two
  </note>
  <outline>
    <contour>
      <point x="48" y="607" type="curve"/>
      <point x="69" y="574" type="line"/>
      <point x="122" y="628"/>
      <point x="195" y="660"/>
      <point x="261" y="660" type="curve" smooth="yes"/>
      <point x="363" y="660"/>
      <point x="425" y="611"/>
      <point x="425" y="530" type="curve" smooth="yes"/>
      <point x="425" y="479"/>
      <point x="384" y="405"/>
      <point x="317" y="337" type="curve"/>
      <point x="50" y="42" type="line"/>
      <point x="50" y="0" type="line"/>
      <point x="515" y="0" type="line"/>
      <point x="515" y="41" type="line"/>
      <point x="100" y="41" type="line"/>
      <point x="346" y="310" type="line" smooth="yes"/>
      <point x="421" y="389"/>
      <point x="467" y="472"/>
      <point x="467" y="534" type="curve" smooth="yes"/>
      <point x="467" y="637"/>
      <point x="389" y="700"/>
      <point x="265" y="700" type="curve" smooth="yes"/>
      <point x="188" y="700"/>
      <point x="107" y="666"/>
    </contour>
  </outline>
</glyph>
<glyph name="five" format="1">
  <advance width="554"/>
  <unicode hex="0035"/>
  <note>
    five
  </note>
  <outline>
    <contour>
      <point x="472" y="699" type="line"/>
      <point x="87" y="699" type="line"/>
      <point x="87" y="354" type="line"/>
      <point x="139" y="371"/>
      <point x="213" y="383"/>
      <point x="262" y="383" type="curve" smooth="yes"/>
      <point x="379" y="383"/>
      <point x="454" y="321"/>
      <point x="454" y="224" type="curve" smooth="yes"/>
      <point x="454" y="112"/>
      <point x="379" y="41"/>
      <point x="260" y="41" type="curve" smooth="yes"/>
      <point x="197" y="41"/>
      <point x="118" y="66"/>
      <point x="59" y="107" type="curve"/>
      <point x="41" y="72" type="line"/>
      <point x="104" y="29"/>
      <point x="191" y="0"/>
      <point x="263" y="0" type="curve" smooth="yes"/>
      <point x="406" y="0"/>
      <point x="497" y="89"/>
      <point x="497" y="226" type="curve" smooth="yes"/>
      <point x="497" y="344"/>
      <point x="407" y="424"/>
      <point x="267" y="424" type="curve" smooth="yes"/>
      <point x="227" y="424"/>
      <point x="171" y="416"/>
      <point x="126" y="403" type="curve"/>
      <point x="126" y="658" type="line"/>
      <point x="472" y="658" type="line"/>
    </contour>
  </outline>
</glyph>
<glyph name="bracketleft" format="1">
  <advance width="323"/>
  <unicode hex="005B"/>
  <outline>
    <contour>
      <point x="120" y="742" type="line"/>
      <point x="120" y="-124" type="line"/>
      <point x="286" y="-124" type="line"/>
      <point x="286" y="-86" type="line"/>
      <point x="158" y="-86" type="line"/>
      <point x="158" y="704" type="line"/>
      <point x="286" y="704" type="line"/>
      <point x="286" y="742" type="line"/>
    </contour>
  </outline>
</glyph>
<glyph name="uni0A18" format="1">
  <advance width="804"/>
  <unicode hex="0A18"/>
  <outline>
    <contour>
      <point x="674" y="680" type="move" name="abvm_bindu"/>
    </contour>
    <contour>
      <point x="678" y="0" type="move" name="blwm"/>
    </contour>
    <contour>
      <point x="674" y="690" type="move" name="abvm_candra"/>
    </contour>
    <contour>
      <point x="401" y="30" type="move" name="blwm_caret_1"/>
    </contour>
    <contour>
      <point x="127" y="0" type="move" name="blwm_nukta"/>
    </contour>
    <contour>
      <point x="678" y="670" type="move" name="abvm"/>
    </contour>
    <contour>
      <point x="698.0" y="0" type="line"/>
      <point x="698.0" y="643" type="line"/>
      <point x="804.0" y="643" type="line"/>
      <point x="804.0" y="682" type="line"/>
      <point x="657" y="682" type="line"/>
      <point x="657" y="238.24039" type="line"/>
      <point x="626.975521446" y="197.67420537"/>
      <point x="580.918149107" y="188.0"/>
      <point x="549.0" y="188.0" type="curve" smooth="yes"/>
      <point x="473.101960632" y="188.0"/>
      <point x="431.384464359" y="237.452700648"/>
      <point x="417.02547" y="301.67234" type="curve"/>
      <point x="429.241307234" y="371.105098858"/>
      <point x="436.0" y="431.93769099"/>
      <point x="436.0" y="477.0" type="curve" smooth="yes"/>
      <point x="436" y="535"/>
      <point x="431" y="596"/>
      <point x="420" y="655" type="curve"/>
      <point x="382.0" y="655" type="line"/>
      <point x="382.0" y="303" type="line"/>
      <point x="370" y="206"/>
      <point x="292" y="188"/>
      <point x="242" y="188" type="curve" smooth="yes"/>
      <point x="160.543598147" y="188.0"/>
      <point x="108.892315028" y="234.460920379"/>
      <point x="94.43302" y="301.1981" type="curve"/>
      <point x="156.398909346" y="343.167164595"/>
      <point x="192.0" y="419.583582297"/>
      <point x="192.0" y="496.0" type="curve" smooth="yes"/>
      <point x="192" y="590"/>
      <point x="137" y="682"/>
      <point x="22" y="682" type="curve" smooth="yes"/>
      <point x="0" y="682" type="line"/>
      <point x="0" y="643" type="line"/>
      <point x="26.0" y="643" type="line" smooth="yes"/>
      <point x="113" y="643"/>
      <point x="152" y="577"/>
      <point x="152" y="502" type="curve" smooth="yes"/>
      <point x="152" y="432"/>
      <point x="118" y="359"/>
      <point x="54" y="319" type="curve"/>
      <point x="69" y="213"/>
      <point x="141" y="149"/>
      <point x="242" y="149" type="curve" smooth="yes"/>
      <point x="300.372901318" y="149.0"/>
      <point x="376.963110411" y="168.735416756"/>
      <point x="401.00975" y="247.33293" type="curve"/>
      <point x="427.569619124" y="186.271430976"/>
      <point x="475.61252303" y="149.0"/>
      <point x="549.0" y="149.0" type="curve" smooth="yes"/>
      <point x="584.98116013" y="149.0"/>
      <point x="625.863622147" y="157.402231807"/>
      <point x="657" y="182.99905" type="curve"/>
      <point x="657" y="0" type="line"/>
    </contour>
  </outline>
</glyph>
<glyph name="uni0A1D" format="1">
  <advance width="620"/>
  <unicode hex="0A1D"/>
  <outline>
    <contour>
      <point x="537" y="680" type="move" name="abvm_bindu"/>
    </contour>
    <contour>
      <point x="188" y="-44" type="move" name="blwm"/>
    </contour>
    <contour>
      <point x="537" y="690" type="move" name="abvm_candra"/>
    </contour>
    <contour>
      <point x="313" y="-3" type="move" name="blwm_caret_1"/>
    </contour>
    <contour>
      <point x="104" y="-6" type="move" name="blwm_nukta"/>
    </contour>
    <contour>
      <point x="541" y="670" type="move" name="abvm"/>
    </contour>
    <contour>
      <point x="314.0" y="430.0" type="curve" smooth="yes"/>
      <point x="214.95255586" y="430.0"/>
      <point x="116.848056375" y="484.69078999"/>
      <point x="112.16711" y="643" type="curve"/>
      <point x="519.82153" y="643" type="line"/>
      <point x="514.902981817" y="486.565161737"/>
      <point x="413.037361865" y="430.0"/>
    </contour>
    <contour>
      <point x="287.0" y="70.0" type="curve" smooth="yes"/>
      <point x="468" y="70"/>
      <point x="560" y="141"/>
      <point x="560" y="246" type="curve" smooth="yes"/>
      <point x="560.0" y="309.731681946"/>
      <point x="520.040877417" y="382.081998175"/>
      <point x="404.05879" y="411.71053" type="curve"/>
      <point x="489.423837417" y="439.700591442"/>
      <point x="555.555593136" y="511.990301644"/>
      <point x="559.78495" y="643" type="curve"/>
      <point x="620" y="643" type="line"/>
      <point x="620" y="682" type="line"/>
      <point x="0" y="682" type="line"/>
      <point x="0" y="643" type="line"/>
      <point x="71.32024" y="643" type="line"/>
      <point x="76.0553608613" y="527.007637"/>
      <point x="130.628856768" y="460.84762443"/>
      <point x="201.0" y="430.0" type="curve"/>
      <point x="89.0" y="430.0" type="line"/>
      <point x="90.0" y="395.0" type="line"/>
      <point x="293" y="395.0" type="line" smooth="yes"/>
      <point x="473" y="395"/>
      <point x="520" y="315"/>
      <point x="520" y="252" type="curve" smooth="yes"/>
      <point x="520" y="170"/>
      <point x="451" y="107"/>
      <point x="286" y="107" type="curve" smooth="yes"/>
      <point x="256.176589606" y="107.0"/>
      <point x="226.857394523" y="110.025291862"/>
      <point x="199.47455" y="115.36341" type="curve"/>
      <point x="174.448466968" y="134.622619679"/>
      <point x="150.290283634" y="145.547109237"/>
      <point x="127.0" y="153.0" type="curve" smooth="yes"/>
      <point x="109" y="159"/>
      <point x="89" y="163"/>
      <point x="63" y="165" type="curve"/>
      <point x="51.0" y="130" type="line"/>
      <point x="84" y="107"/>
      <point x="126" y="92"/>
      <point x="170" y="82" type="curve"/>
      <point x="168" y="-38" type="line"/>
      <point x="168" y="-44.0" type="line"/>
      <point x="208.0" y="-44.0" type="line"/>
      <point x="210.60407" y="74.91922" type="line"/>
      <point x="237.411565494" y="71.435051384"/>
      <point x="263.282071285" y="70.0"/>
    </contour>
  </outline>
</glyph>
<glyph name="uni0A1E" format="1">
  <advance width="618"/>
  <unicode hex="0A1E"/>
  <outline>
    <contour>
      <point x="488" y="680" type="move" name="abvm_bindu"/>
    </contour>
    <contour>
      <point x="387" y="2" type="move" name="blwm"/>
    </contour>
    <contour>
      <point x="488" y="690" type="move" name="abvm_candra"/>
    </contour>
    <contour>
      <point x="351" y="30" type="move" name="blwm_caret_1"/>
    </contour>
    <contour>
      <point x="102" y="-7" type="move" name="blwm_nukta"/>
    </contour>
    <contour>
      <point x="491" y="670" type="move" name="abvm"/>
    </contour>
    <contour>
      <point x="379.0" y="465.0" type="line"/>
      <point x="246.032893053" y="465.0"/>
      <point x="118.636123702" y="512.347869567"/>
      <point x="110.41513" y="643" type="curve"/>
      <point x="471.0" y="643" type="line"/>
      <point x="471.0" y="465.0" type="line"/>
    </contour>
    <contour>
      <point x="513" y="14" type="curve"/>
      <point x="504.0" y="51.0" type="line"/>
      <point x="468" y="42"/>
      <point x="427" y="37"/>
      <point x="385" y="37" type="curve" smooth="yes"/>
      <point x="286" y="37"/>
      <point x="195" y="66"/>
      <point x="195" y="174" type="curve" smooth="yes"/>
      <point x="195.0" y="184.226552748"/>
      <point x="195.618830657" y="198.784920098"/>
      <point x="197.3433" y="217.13413" type="curve"/>
      <point x="205.89199233" y="216.379436079"/>
      <point x="214.780424058" y="216.0"/>
      <point x="224.0" y="216.0" type="curve"/>
      <point x="480.0" y="216.0" type="line"/>
      <point x="481.0" y="251.0" type="line"/>
      <point x="219.0" y="251.0" type="line"/>
      <point x="132" y="251"/>
      <point x="90" y="290"/>
      <point x="90" y="343" type="curve" smooth="yes"/>
      <point x="90" y="382"/>
      <point x="117" y="428"/>
      <point x="216" y="428" type="curve"/>
      <point x="512" y="428.0" type="line"/>
      <point x="512" y="643" type="line"/>
      <point x="618" y="643" type="line"/>
      <point x="618" y="682" type="line"/>
      <point x="0" y="682" type="line"/>
      <point x="0" y="643" type="line"/>
      <point x="69.55859" y="643" type="line"/>
      <point x="76.0698602488" y="550.084802028"/>
      <point x="138.845447938" y="493.520873854"/>
      <point x="223.15355" y="465.0" type="curve"/>
      <point x="200.0" y="465.0" type="line"/>
      <point x="94" y="465"/>
      <point x="50" y="404"/>
      <point x="50" y="347" type="curve" smooth="yes"/>
      <point x="50.0" y="287.402874013"/>
      <point x="88.7403908994" y="240.719211658"/>
      <point x="158.98804" y="223.35439" type="curve"/>
      <point x="156.770548536" y="201.246733505"/>
      <point x="156.0" y="184.655898342"/>
      <point x="156.0" y="175.0" type="curve" smooth="yes"/>
      <point x="156" y="51"/>
      <point x="258" y="-2"/>
      <point x="389" y="-2" type="curve" smooth="yes"/>
      <point x="428" y="-2"/>
      <point x="473" y="2"/>
    </contour>
  </outline>
</glyph>
<glyph name="uni0A20" format="1">
  <advance width="641"/>
  <unicode hex="0A20"/>
  <outline>
    <contour>
      <point x="483" y="680" type="move" name="abvm_bindu"/>
    </contour>
    <contour>
      <point x="320" y="2" type="move" name="blwm"/>
    </contour>
    <contour>
      <point x="320" y="690" type="move" name="abvm_candra"/>
    </contour>
    <contour>
      <point x="320" y="30" type="move" name="blwm_caret_1"/>
    </contour>
    <contour>
      <point x="76" y="-6" type="move" name="blwm_nukta"/>
    </contour>
    <contour>
      <point x="483" y="670" type="move" name="abvm"/>
    </contour>
    <contour>
      <point x="592" y="227" type="curve" smooth="yes"/>
      <point x="592.0" y="356.151632412"/>
      <point x="492.239467058" y="447.77866069"/>
      <point x="340" y="454.59789" type="curve"/>
      <point x="340" y="643" type="line"/>
      <point x="641" y="643" type="line"/>
      <point x="641" y="682" type="line"/>
      <point x="0" y="682" type="line"/>
      <point x="0" y="643" type="line"/>
      <point x="299" y="643" type="line"/>
      <point x="299" y="454.51854" type="line"/>
      <point x="147.224417828" y="447.210875609"/>
      <point x="48.0" y="356.399074604"/>
      <point x="48.0" y="227.0" type="curve" smooth="yes"/>
      <point x="48" y="92"/>
      <point x="158" y="-2"/>
      <point x="320" y="-2" type="curve" smooth="yes"/>
      <point x="484" y="-2"/>
      <point x="592" y="92"/>
    </contour>
    <contour>
      <point x="89" y="227" type="curve" smooth="yes"/>
      <point x="89" y="336"/>
      <point x="179" y="416"/>
      <point x="319" y="416" type="curve" smooth="yes"/>
      <point x="460" y="416"/>
      <point x="551" y="336"/>
      <point x="551" y="226" type="curve" smooth="yes"/>
      <point x="551" y="117"/>
      <point x="461" y="37"/>
      <point x="320" y="37" type="curve" smooth="yes"/>
      <point x="178" y="37"/>
      <point x="89" y="117"/>
    </contour>
  </outline>
</glyph>
<glyph name="uni0A21" format="1">
  <advance width="579"/>
  <unicode hex="0A21"/>
  <outline>
    <contour>
      <point x="493" y="680" type="move" name="abvm_bindu"/>
    </contour>
    <contour>
      <point x="258" y="2" type="move" name="blwm"/>
    </contour>
    <contour>
      <point x="493" y="690" type="move" name="abvm_candra"/>
    </contour>
    <contour>
      <point x="267" y="30" type="move" name="blwm_caret_1"/>
    </contour>
    <contour>
      <point x="55" y="-12" type="move" name="blwm_nukta"/>
    </contour>
    <contour>
      <point x="491" y="670" type="move" name="abvm"/>
    </contour>
    <contour>
      <point x="255" y="-2" type="curve" smooth="yes"/>
      <point x="419" y="-2"/>
      <point x="521" y="90"/>
      <point x="521" y="207" type="curve" smooth="yes"/>
      <point x="521.0" y="288.014599073"/>
      <point x="471.572187526" y="377.132118223"/>
      <point x="341.35261" y="396.28865" type="curve"/>
      <point x="442.038105178" y="423.25555522"/>
      <point x="505.066637965" y="510.248551519"/>
      <point x="510.60242" y="643" type="curve"/>
      <point x="579" y="643" type="line"/>
      <point x="579" y="682" type="line"/>
      <point x="0" y="682" type="line"/>
      <point x="0" y="643" type="line"/>
      <point x="470.56418" y="643" type="line"/>
      <point x="465.424510872" y="531.35062284"/>
      <point x="414.425204647" y="442.508502091"/>
      <point x="296.3771" y="420.58612" type="curve"/>
      <point x="266.616744527" y="426.053943514"/>
      <point x="226.659686768" y="428.0"/>
      <point x="188.0" y="428.0" type="curve" smooth="yes"/>
      <point x="165" y="428"/>
      <point x="133" y="427"/>
      <point x="102" y="422" type="curve"/>
      <point x="104.0" y="383.0" type="line"/>
      <point x="135" y="378"/>
      <point x="166" y="375"/>
      <point x="203" y="375" type="curve" smooth="yes"/>
      <point x="228.22266616" y="375.0"/>
      <point x="264.628234651" y="376.242544704"/>
      <point x="291.64964" y="380.69444" type="curve"/>
      <point x="439.85991887" y="365.824311816"/>
      <point x="481.0" y="282.05547572"/>
      <point x="481.0" y="212.0" type="curve" smooth="yes"/>
      <point x="481.0" y="190.694025894"/>
      <point x="477.076712073" y="169.991634545"/>
      <point x="469.29782" y="150.73129" type="curve"/>
      <point x="403.135934724" y="208.676743965"/>
      <point x="323.010903472" y="245.0"/>
      <point x="222.0" y="245.0" type="curve" smooth="yes"/>
      <point x="123" y="245"/>
      <point x="49" y="207"/>
      <point x="49" y="131" type="curve" smooth="yes"/>
      <point x="49" y="51"/>
      <point x="131" y="-2"/>
    </contour>
    <contour>
      <point x="253.0" y="34.0" type="curve" smooth="yes"/>
      <point x="149" y="34"/>
      <point x="87" y="74"/>
      <point x="87" y="129" type="curve" smooth="yes"/>
      <point x="87" y="182"/>
      <point x="145" y="211"/>
      <point x="226" y="211" type="curve" smooth="yes"/>
      <point x="312.875411182" y="211.0"/>
      <point x="387.364080552" y="176.698253447"/>
      <point x="452.25625" y="119.24941" type="curve"/>
      <point x="417.151778735" y="68.8441567408"/>
      <point x="350.189017592" y="34.0"/>
    </contour>
  </outline>
</glyph>
<glyph name="uni0A36" format="1">
  <advance width="667"/>
  <unicode hex="0A36"/>
  <outline>
    <contour>
      <point x="538" y="680" type="move" name="abvm_bindu"/>
    </contour>
    <contour>
      <point x="541" y="0" type="move" name="blwm"/>
    </contour>
    <contour>
      <point x="538" y="690" type="move" name="abvm_candra"/>
    </contour>
    <contour>
      <point x="343" y="30" type="move" name="blwm_caret_1"/>
    </contour>
    <contour>
      <point x="343" y="23" type="move" name="blwm_nukta"/>
    </contour>
    <contour>
      <point x="541" y="670" type="move" name="abvm"/>
    </contour>
    <component base="uni0A38"/>
    <component base="uni0A3C" xOffset="343" yOffset="76"/>
  </outline>
</glyph>
<glyph name="uni0A39" format="1">
  <advance width="585"/>
  <unicode hex="0A39"/>
  <outline>
    <contour>
      <point x="455" y="680" type="move" name="abvm_bindu"/>
    </contour>
    <contour>
      <point x="373" y="2" type="move" name="blwm"/>
    </contour>
    <contour>
      <point x="455" y="690" type="move" name="abvm_candra"/>
    </contour>
    <contour>
      <point x="293" y="30" type="move" name="blwm_caret_1"/>
    </contour>
    <contour>
      <point x="99" y="-5" type="move" name="blwm_nukta"/>
    </contour>
    <contour>
      <point x="458" y="670" type="move" name="abvm"/>
    </contour>
    <contour>
      <point x="372" y="-2" type="curve" smooth="yes"/>
      <point x="435" y="-2"/>
      <point x="478" y="26"/>
      <point x="478" y="112" type="curve"/>
      <point x="478.0" y="643" type="line"/>
      <point x="585" y="643" type="line"/>
      <point x="585" y="682" type="line"/>
      <point x="0" y="682" type="line"/>
      <point x="0" y="643" type="line"/>
      <point x="438.0" y="643" type="line"/>
      <point x="438.0" y="121.0" type="line"/>
      <point x="438" y="68"/>
      <point x="428" y="37"/>
      <point x="367" y="37" type="curve" smooth="yes"/>
      <point x="239" y="37"/>
      <point x="89" y="145"/>
      <point x="89" y="278" type="curve" smooth="yes"/>
      <point x="89" y="380"/>
      <point x="144" y="404"/>
      <point x="247" y="404" type="curve"/>
      <point x="243.0" y="443.0" type="line"/>
      <point x="125" y="443"/>
      <point x="48" y="417"/>
      <point x="48" y="284" type="curve" smooth="yes"/>
      <point x="48" y="112"/>
      <point x="238" y="-2"/>
    </contour>
  </outline>
</glyph>
<glyph name="uni0A42" format="1">
  <advance width="0"/>
  <unicode hex="0A42"/>
  <outline>
    <contour>
      <point x="0" y="30" type="move" name="_blwm_caret_1"/>
    </contour>
    <component base="uni0A41" yOffset="-104"/>
    <component base="uni0A41"/>
  </outline>
</glyph>
<glyph name="uni0A47" format="1">
  <advance width="0"/>
  <unicode hex="0A47"/>
  <outline>
    <contour>
      <point x="0" y="672" type="move" name="_abvm"/>
    </contour>
    <contour>
      <point x="133" y="680" type="move" name="abvm_bindu"/>
    </contour>
    <contour>
      <point x="187" y="690" type="move" name="abvm_candra"/>
    </contour>
    <contour>
      <point x="190" y="670" type="move" name="abvm"/>
    </contour>
    <contour>
      <point x="20" y="665" type="line"/>
      <point x="20" y="818"/>
      <point x="-68" y="917"/>
      <point x="-237" y="917" type="curve" smooth="yes"/>
      <point x="-282" y="917"/>
      <point x="-328" y="910"/>
      <point x="-363" y="897" type="curve"/>
      <point x="-354" y="861" type="line"/>
      <point x="-320" y="871"/>
      <point x="-277" y="878"/>
      <point x="-235" y="878" type="curve" smooth="yes"/>
      <point x="-80" y="878"/>
      <point x="-22" y="786"/>
      <point x="-21" y="665" type="curve"/>
    </contour>
  </outline>
</glyph>
<glyph name="uni0A4B" format="1">
  <advance width="0"/>
  <unicode hex="0A4B"/>
  <outline>
    <contour>
      <point x="0" y="672" type="move" name="_abvm"/>
    </contour>
    <contour>
      <point x="133" y="680" type="move" name="abvm_bindu"/>
    </contour>
    <contour>
      <point x="187" y="690" type="move" name="abvm_candra"/>
    </contour>
    <contour>
      <point x="190" y="670" type="move" name="abvm"/>
    </contour>
    <contour>
      <point x="20" y="670" type="line"/>
      <point x="20" y="681" type="line"/>
      <point x="20" y="804"/>
      <point x="-26" y="888"/>
      <point x="-133" y="888" type="curve" smooth="yes"/>
      <point x="-217" y="888"/>
      <point x="-230" y="835"/>
      <point x="-295" y="835" type="curve" smooth="yes"/>
      <point x="-335" y="835"/>
      <point x="-369" y="856"/>
      <point x="-399" y="901" type="curve"/>
      <point x="-425" y="876" type="line"/>
      <point x="-391" y="825"/>
      <point x="-348" y="797"/>
      <point x="-293" y="797" type="curve" smooth="yes"/>
      <point x="-219" y="797"/>
      <point x="-207" y="849"/>
      <point x="-132" y="849" type="curve" smooth="yes"/>
      <point x="-58" y="849"/>
      <point x="-22" y="795"/>
      <point x="-21" y="677" type="curve"/>
      <point x="-21" y="670" type="line"/>
    </contour>
  </outline>
</glyph>
<glyph name="uni0A4D" format="1">
  <advance width="0"/>
  <unicode hex="0A4D"/>
  <outline>
    <contour>
      <point x="0" y="0" type="move" name="_blwm"/>
    </contour>
    <contour>
      <point x="209" y="-329" type="line"/>
      <point x="173" y="-180"/>
      <point x="80" y="-95"/>
      <point x="-46" y="-77" type="curve"/>
      <point x="-52" y="-109" type="line"/>
      <point x="62" y="-125"/>
      <point x="143" y="-198"/>
      <point x="181" y="-342" type="curve"/>
    </contour>
  </outline>
</glyph>
<glyph name="uni0A51" format="1">
  <advance width="0"/>
  <unicode hex="0A51"/>
  <outline>
    <contour>
      <point x="0" y="0" type="move" name="_blwm"/>
    </contour>
    <contour>
      <point x="210" y="-304" type="line"/>
      <point x="98" y="-303"/>
      <point x="19" y="-214"/>
      <point x="-12" y="-69" type="curve"/>
      <point x="-44" y="-76" type="line"/>
      <point x="-14" y="-234"/>
      <point x="79" y="-340"/>
      <point x="208" y="-341" type="curve"/>
    </contour>
  </outline>
</glyph>
<glyph name="uni0A59" format="1">
  <advance width="633"/>
  <unicode hex="0A59"/>
  <outline>
    <contour>
      <point x="504" y="680" type="move" name="abvm_bindu"/>
    </contour>
    <contour>
      <point x="507" y="0" type="move" name="blwm"/>
    </contour>
    <contour>
      <point x="504" y="690" type="move" name="abvm_candra"/>
    </contour>
    <contour>
      <point x="303" y="30" type="move" name="blwm_caret_1"/>
    </contour>
    <contour>
      <point x="122" y="75" type="move" name="blwm_nukta"/>
    </contour>
    <contour>
      <point x="507" y="670" type="move" name="abvm"/>
    </contour>
    <component base="uni0A16"/>
    <component base="uni0A3C" xOffset="121" yOffset="121"/>
  </outline>
</glyph>
<glyph name="uni0A5E" format="1">
  <advance width="583"/>
  <unicode hex="0A5E"/>
  <outline>
    <contour>
      <point x="450" y="680" type="move" name="abvm_bindu"/>
    </contour>
    <contour>
      <point x="328" y="2" type="move" name="blwm"/>
    </contour>
    <contour>
      <point x="450" y="690" type="move" name="abvm_candra"/>
    </contour>
    <contour>
      <point x="319" y="30" type="move" name="blwm_caret_1"/>
    </contour>
    <contour>
      <point x="71" y="-7" type="move" name="blwm_nukta"/>
    </contour>
    <contour>
      <point x="454" y="670" type="move" name="abvm"/>
    </contour>
    <component base="uni0A2B"/>
    <component base="uni0A3C" xOffset="75" yOffset="47"/>
  </outline>
</glyph>
<glyph name="uni0A66" format="1">
  <advance width="729"/>
  <unicode hex="0A66"/>
  <outline>
    <contour>
      <point x="660" y="340" type="curve" smooth="yes"/>
      <point x="660" y="511"/>
      <point x="536" y="640"/>
      <point x="364" y="640" type="curve" smooth="yes"/>
      <point x="192" y="640"/>
      <point x="69" y="512"/>
      <point x="69" y="342" type="curve" smooth="yes"/>
      <point x="69" y="170"/>
      <point x="192" y="41"/>
      <point x="365" y="41" type="curve" smooth="yes"/>
      <point x="537" y="41"/>
      <point x="660" y="169"/>
    </contour>
    <contour>
      <point x="110" y="340" type="curve" smooth="yes"/>
      <point x="110" y="495"/>
      <point x="219" y="601"/>
      <point x="365" y="601" type="curve" smooth="yes"/>
      <point x="511" y="601"/>
      <point x="619" y="496"/>
      <point x="619" y="341" type="curve" smooth="yes"/>
      <point x="619" y="186"/>
      <point x="510" y="81"/>
      <point x="364" y="81" type="curve" smooth="yes"/>
      <point x="218" y="81"/>
      <point x="110" y="186"/>
    </contour>
  </outline>
</glyph>
<glyph name="uni0A69" format="1">
  <advance width="624"/>
  <unicode hex="0A69"/>
  <outline>
    <contour>
      <point x="272" y="347" type="line"/>
      <point x="276.9132543" y="347.129980272"/>
      <point x="281.732573116" y="347.197111624"/>
      <point x="286.45952" y="347.18538" type="curve"/>
    </contour>
    <contour>
      <point x="291.0" y="-2.0" type="curve" smooth="yes"/>
      <point x="456" y="-2"/>
      <point x="551" y="79"/>
      <point x="551" y="188" type="curve" smooth="yes"/>
      <point x="551.0" y="261.667815347"/>
      <point x="506.097114237" y="338.486710396"/>
      <point x="398.11224" y="361.10211" type="curve"/>
      <point x="511.681231306" y="384.940984968"/>
      <point x="550.0" y="450.17354887"/>
      <point x="550.0" y="512.0" type="curve" smooth="yes"/>
      <point x="550" y="613"/>
      <point x="454" y="685"/>
      <point x="299" y="685" type="curve" smooth="yes"/>
      <point x="223" y="685"/>
      <point x="137" y="667"/>
      <point x="72" y="632" type="curve"/>
      <point x="89.0" y="596" type="line"/>
      <point x="142" y="624"/>
      <point x="217" y="645"/>
      <point x="299" y="645" type="curve" smooth="yes"/>
      <point x="433" y="645"/>
      <point x="510" y="591"/>
      <point x="510" y="512" type="curve" smooth="yes"/>
      <point x="510.0" y="456.851580229"/>
      <point x="472.813900741" y="396.16480525"/>
      <point x="340.02968" y="384.14695" type="curve"/>
      <point x="305.047802065" y="391.342297263"/>
      <point x="256.037346928" y="392.0"/>
      <point x="209.0" y="392.0" type="curve" smooth="yes"/>
      <point x="188" y="392"/>
      <point x="157" y="392"/>
      <point x="127" y="387" type="curve"/>
      <point x="128" y="348.0" type="line"/>
      <point x="160" y="343"/>
      <point x="191" y="340"/>
      <point x="226" y="340" type="curve" smooth="yes"/>
      <point x="257.03674461" y="340.0"/>
      <point x="295.673327611" y="342.533279464"/>
      <point x="327.29361" y="345.5861" type="curve"/>
      <point x="470.995699108" y="333.605815906"/>
      <point x="511.0" y="256.40221981"/>
      <point x="511.0" y="192.0" type="curve" smooth="yes"/>
      <point x="511" y="96"/>
      <point x="420" y="36"/>
      <point x="296" y="36" type="curve" smooth="yes"/>
      <point x="268.869880185" y="36.0"/>
      <point x="243.26893641" y="38.5486267355"/>
      <point x="218.83325" y="42.92517" type="curve"/>
      <point x="181.808494837" y="76.2406723118"/>
      <point x="143.414951808" y="87.6019879517"/>
      <point x="88.0" y="92.0" type="curve"/>
      <point x="78" y="58.0" type="line"/>
      <point x="110" y="35"/>
      <point x="151" y="19"/>
      <point x="194" y="9" type="curve"/>
      <point x="192.0" y="-109.0" type="line"/>
      <point x="192.0" y="-118.0" type="line"/>
      <point x="232.0" y="-118.0" type="line"/>
      <point x="234.77537" y="2.26612" type="line"/>
      <point x="255.234042079" y="-1.57920019961"/>
      <point x="275.431419942" y="-2.0"/>
    </contour>
  </outline>
</glyph>
<glyph name="uni0A6A" format="1">
  <advance width="668"/>
  <unicode hex="0A6A"/>
  <outline>
    <contour>
      <point x="335" y="-1" type="curve" smooth="yes"/>
      <point x="484" y="-1"/>
      <point x="577" y="76"/>
      <point x="577" y="179" type="curve" smooth="yes"/>
      <point x="577.0" y="252.007757407"/>
      <point x="526.708430585" y="308.76746931"/>
      <point x="440.41726" y="333.61247" type="curve"/>
      <point x="537.311662704" y="358.806286096"/>
      <point x="596.0" y="420.506858461"/>
      <point x="596.0" y="506.0" type="curve" smooth="yes"/>
      <point x="596" y="598"/>
      <point x="526" y="669"/>
      <point x="414" y="684" type="curve"/>
      <point x="410.0" y="645" type="line"/>
      <point x="502" y="632"/>
      <point x="555" y="577"/>
      <point x="555" y="505" type="curve" smooth="yes"/>
      <point x="555" y="415"/>
      <point x="469" y="358"/>
      <point x="334" y="358" type="curve" smooth="yes"/>
      <point x="199" y="358"/>
      <point x="113" y="414"/>
      <point x="113" y="505" type="curve" smooth="yes"/>
      <point x="113" y="579"/>
      <point x="171" y="633"/>
      <point x="263" y="645" type="curve"/>
      <point x="258" y="684" type="line"/>
      <point x="142" y="670"/>
      <point x="72" y="600"/>
      <point x="72" y="507" type="curve" smooth="yes"/>
      <point x="72.0" y="424.914219203"/>
      <point x="130.910394645" y="364.322771587"/>
      <point x="229.55315" y="340.15427" type="curve"/>
      <point x="144.092925009" y="315.401891265"/>
      <point x="93.0" y="257.133485634"/>
      <point x="93.0" y="180.0" type="curve" smooth="yes"/>
      <point x="93" y="77"/>
      <point x="186" y="-1"/>
    </contour>
    <contour>
      <point x="133" y="181" type="curve" smooth="yes"/>
      <point x="133" y="262"/>
      <point x="208" y="322"/>
      <point x="334" y="322" type="curve" smooth="yes"/>
      <point x="459" y="322"/>
      <point x="536" y="262"/>
      <point x="536" y="181" type="curve" smooth="yes"/>
      <point x="536" y="100"/>
      <point x="459" y="35"/>
      <point x="334" y="35" type="curve" smooth="yes"/>
      <point x="208" y="35"/>
      <point x="133" y="101"/>
    </contour>
  </outline>
</glyph>
<glyph name="uni0A74" format="1">
  <advance width="1213"/>
  <unicode hex="0A74"/>
  <outline>
    <contour>
      <point x="1292.0" y="827.0" type="curve"/>
      <point x="1263.728" y="850.87413" type="line"/>
      <point x="1274.35584562" y="843.438894417"/>
      <point x="1283.82750371" y="835.464371156"/>
    </contour>
    <contour>
      <point x="559" y="-8" type="curve"/>
      <point x="567" y="30.0" type="line"/>
      <point x="533" y="32"/>
      <point x="496" y="56"/>
      <point x="496" y="102" type="curve" smooth="yes"/>
      <point x="496.0" y="446.0" type="line" smooth="yes"/>
      <point x="496" y="577"/>
      <point x="413" y="685"/>
      <point x="266" y="685" type="curve" smooth="yes"/>
      <point x="132" y="685"/>
      <point x="58" y="596"/>
      <point x="58" y="495" type="curve" smooth="yes"/>
      <point x="58" y="394"/>
      <point x="134" y="303"/>
      <point x="266" y="303" type="curve" smooth="yes"/>
      <point x="337.036900158" y="303.0"/>
      <point x="405.766419803" y="329.150312492"/>
      <point x="456.0" y="392.26113" type="curve"/>
      <point x="456.0" y="105.0" type="line" smooth="yes"/>
      <point x="456" y="33"/>
      <point x="510" y="-4"/>
    </contour>
    <contour>
      <point x="266.0" y="342.0" type="curve" smooth="yes"/>
      <point x="156" y="342"/>
      <point x="97" y="415"/>
      <point x="97" y="494" type="curve" smooth="yes"/>
      <point x="97" y="572"/>
      <point x="156" y="645"/>
      <point x="268" y="645" type="curve" smooth="yes"/>
      <point x="388.990252906" y="645.0"/>
      <point x="454.543459238" y="561.029179454"/>
      <point x="457.29862" y="456.7454" type="curve"/>
      <point x="419.544313339" y="385.373362439"/>
      <point x="349.475312683" y="342.0"/>
    </contour>
    <contour>
      <point x="676.0" y="600.0" type="curve" smooth="yes"/>
      <point x="676.0" y="614.87606462"/>
      <point x="676.390217635" y="629.235090873"/>
      <point x="677.19484" y="643" type="curve"/>
      <point x="1097.87279" y="643" type="line"/>
      <point x="1094.19555447" y="507.296300533"/>
      <point x="1033.2459275" y="385.0"/>
      <point x="850.0" y="385.0" type="curve" smooth="yes"/>
      <point x="690.51629" y="385.0" type="line"/>
      <point x="679.958551938" y="457.271115791"/>
      <point x="676.0" y="532.068995801"/>
    </contour>
    <contour>
      <point x="1127" y="179" type="curve" smooth="yes"/>
      <point x="1127.0" y="267.540381798"/>
      <point x="1071.49404975" y="346.285595904"/>
      <point x="944.25775" y="363.60084" type="curve"/>
      <point x="1066.86558177" y="388.837110105"/>
      <point x="1134.91642665" y="496.968022111"/>
      <point x="1137.90655" y="643" type="curve"/>
      <point x="1199" y="643" type="line"/>
      <point x="1199" y="682" type="line"/>
      <point x="680.74949" y="682" type="line"/>
      <point x="700.933651603" y="840.474173189"/>
      <point x="787.852807818" y="920.0"/>
      <point x="987.0" y="920.0" type="curve" smooth="yes"/>
      <point x="1091.1928977" y="920.0"/>
      <point x="1186.0399277" y="898.192975344"/>
      <point x="1248.91808" y="860.46981" type="curve"/>
      <point x="1266" y="820"/>
      <point x="1277" y="796"/>
      <point x="1318" y="764" type="curve" smooth="yes"/>
      <point x="1330" y="757"/>
      <point x="1341" y="753"/>
      <point x="1353" y="748" type="curve"/>
      <point x="1373" y="776.0" type="line"/>
      <point x="1352.72446931" y="811.942986222"/>
      <point x="1318.0095761" y="847.885972444"/>
      <point x="1282.94565" y="879.13172" type="curve"/>
      <point x="1277.96249016" y="898.085571521"/>
      <point x="1276.0" y="914.309478656"/>
      <point x="1276.0" y="941.0" type="curve" smooth="yes"/>
      <point x="1276" y="1105"/>
      <point x="1363" y="1173"/>
      <point x="1461" y="1173" type="curve" smooth="yes"/>
      <point x="1567" y="1173"/>
      <point x="1640" y="1095"/>
      <point x="1646" y="997" type="curve"/>
      <point x="1678.0" y="1008.0" type="line"/>
      <point x="1669" y="1123"/>
      <point x="1580" y="1211"/>
      <point x="1459" y="1211" type="curve" smooth="yes"/>
      <point x="1343" y="1211"/>
      <point x="1240" y="1128"/>
      <point x="1240" y="943" type="curve" smooth="yes"/>
      <point x="1240.0" y="925.799688761"/>
      <point x="1240.51185243" y="911.926418341"/>
      <point x="1241.92397" y="901.28162" type="curve"/>
      <point x="1158.98646912" y="946.521632594"/>
      <point x="1050.81603329" y="958.0"/>
      <point x="982.0" y="958.0" type="curve" smooth="yes"/>
      <point x="763" y="958"/>
      <point x="637" y="871"/>
      <point x="637" y="604" type="curve" smooth="yes"/>
      <point x="637" y="211"/>
      <point x="753" y="-2"/>
      <point x="941" y="-2" type="curve" smooth="yes"/>
      <point x="1053" y="-2"/>
      <point x="1127" y="76"/>
    </contour>
    <contour>
      <point x="938" y="37" type="curve" smooth="yes"/>
      <point x="795.95274605" y="37.0"/>
      <point x="726.842900157" y="181.095854944"/>
      <point x="696.56236" y="348.0" type="curve"/>
      <point x="858.0" y="348.0" type="line" smooth="yes"/>
      <point x="1037" y="348"/>
      <point x="1087" y="262"/>
      <point x="1087" y="184" type="curve" smooth="yes"/>
      <point x="1087" y="90"/>
      <point x="1017" y="37"/>
    </contour>
  </outline>
</glyph>
<glyph name="bullet" format="1">
  <advance width="214"/>
  <unicode hex="2022"/>
  <outline>
    <contour>
      <point x="56" y="272" type="curve" smooth="yes"/>
      <point x="56" y="242"/>
      <point x="79" y="219"/>
      <point x="107" y="219" type="curve" smooth="yes"/>
      <point x="135" y="219"/>
      <point x="158" y="242"/>
      <point x="158" y="272" type="curve" smooth="yes"/>
      <point x="158" y="301"/>
      <point x="135" y="325"/>
      <point x="107" y="325" type="curve" smooth="yes"/>
      <point x="79" y="325"/>
      <point x="56" y="301"/>
    </contour>
  </outline>
</glyph>
<glyph name="rupeeIndian" format="1">
  <advance width="613"/>
  <unicode hex="20B9"/>
  <outline>
    <contour>
      <point x="460" y="0" type="line"/>
      <point x="460" y="5" type="line"/>
      <point x="221" y="276" type="line"/>
      <point x="405" y="283"/>
      <point x="468" y="371"/>
      <point x="471" y="472" type="curve"/>
      <point x="553" y="472" type="line"/>
      <point x="553" y="499" type="line"/>
      <point x="470" y="499" type="line"/>
      <point x="465" y="565"/>
      <point x="426" y="629"/>
      <point x="354" y="660" type="curve"/>
      <point x="553" y="660" type="line"/>
      <point x="553" y="699" type="line"/>
      <point x="61" y="699" type="line"/>
      <point x="61" y="660" type="line"/>
      <point x="228" y="660" type="line" smooth="yes"/>
      <point x="357" y="660"/>
      <point x="423" y="582"/>
      <point x="430" y="499" type="curve"/>
      <point x="61" y="499" type="line"/>
      <point x="61" y="472" type="line"/>
      <point x="429" y="472" type="line"/>
      <point x="424" y="379"/>
      <point x="365" y="309"/>
      <point x="183" y="309" type="curve" smooth="yes"/>
      <point x="61" y="309" type="line"/>
      <point x="61" y="271" type="line"/>
      <point x="176" y="271" type="line"/>
      <point x="414" y="0" type="line"/>
    </contour>
  </outline>
</glyph>
<glyph name="uni0A30.blwf" format="1">
  <advance width="0"/>
  <outline>
    <contour>
      <point x="0" y="0" type="move" name="_blwm"/>
    </contour>
    <contour>
      <point x="243.0" y="-296" type="line"/>
      <point x="258" y="-271" type="line"/>
      <point x="15.0" y="-97.0" type="line"/>
      <point x="15.0" y="-10" type="line"/>
      <point x="-14.0" y="-10" type="line"/>
      <point x="-14.0" y="-85.87447" type="line"/>
      <point x="-24.5338399553" y="-83.9566770289"/>
      <point x="-37.092735177" y="-83.0"/>
      <point x="-53.0" y="-83.0" type="curve" smooth="yes"/>
      <point x="-76" y="-83"/>
      <point x="-110" y="-85"/>
      <point x="-142" y="-91" type="curve"/>
      <point x="-141" y="-118.0" type="line"/>
      <point x="-120" y="-123"/>
      <point x="-89" y="-126"/>
      <point x="-59" y="-126" type="curve" smooth="yes"/>
      <point x="-40.9029213998" y="-126.0"/>
      <point x="-21.7578291872" y="-124.427979581"/>
      <point x="-5.73724" y="-118.99597" type="curve"/>
    </contour>
  </outline>
</glyph>
<glyph name="uni0A39.blwf" format="1">
  <advance width="0"/>
  <outline>
    <contour>
      <point x="0" y="2" type="move" name="_blwm"/>
    </contour>
    <contour>
      <point x="-76" y="-308" type="move" name="blwm"/>
    </contour>
    <contour>
      <point x="-77" y="-280" type="move" name="blwm_caret_1"/>
    </contour>
    <contour>
      <point x="16" y="-245" type="curve"/>
      <point x="16" y="-63" type="line"/>
      <point x="-14" y="-63" type="line"/>
      <point x="-14" y="-238" type="line"/>
      <point x="-14" y="-266"/>
      <point x="-19" y="-284"/>
      <point x="-54" y="-284" type="curve" smooth="yes"/>
      <point x="-108" y="-284"/>
      <point x="-169" y="-242"/>
      <point x="-169" y="-189" type="curve" smooth="yes"/>
      <point x="-169" y="-157"/>
      <point x="-148" y="-133"/>
      <point x="-90" y="-133" type="curve"/>
      <point x="-93" y="-104" type="line"/>
      <point x="-163" y="-104"/>
      <point x="-199" y="-133"/>
      <point x="-199" y="-184" type="curve" smooth="yes"/>
      <point x="-199" y="-263"/>
      <point x="-113" y="-313"/>
      <point x="-49" y="-313" type="curve" smooth="yes"/>
      <point x="-10" y="-313"/>
      <point x="16" y="-295"/>
    </contour>
  </outline>
</glyph>
